<?xml version="1.0" encoding="utf-8"?>
<!-- Generator: Adobe Illustrator 27.7.0, SVG Export Plug-In . SVG Version: 6.00 Build 0)  -->
<svg version="1.1" id="Layer_1" xmlns="http://www.w3.org/2000/svg" xmlns:xlink="http://www.w3.org/1999/xlink" x="0px" y="0px"
	 viewBox="0 0 606.6 270.8" style="enable-background:new 0 0 606.6 270.8;" xml:space="preserve">
<style type="text/css">
	.st0{fill:#A18063;}
	.st1{fill:#FFFFFF;stroke:#3D3F38;stroke-width:2.4299;stroke-miterlimit:10;}
	.st2{fill:#3D3F38;stroke:#3D3F38;stroke-width:2.4299;stroke-miterlimit:10;}
	.st3{fill:none;stroke:#3D3F38;stroke-width:4.8597;stroke-miterlimit:10;}
	.st4{fill:none;stroke:#FFFFFF;stroke-width:4.8597;stroke-miterlimit:10;}
	.st5{fill:#3D3F38;}
</style>
<g>
	<g>
		<path class="st0" d="M214.5,236.1h12.1c3.4,0,5.1,1.6,5.1,4.9v24.9c0,3.2-1.7,4.9-5.1,4.9h-12.1V236.1z M226.7,265.2v-23.6
			c0-0.7-0.1-1.1-0.3-1.3c-0.2-0.2-0.7-0.3-1.3-0.3h-5.5v26.8h5.5c0.7,0,1.1-0.1,1.3-0.3C226.6,266.3,226.7,265.9,226.7,265.2z"/>
		<path class="st0" d="M254.1,243.7h5v27h-5v-2.2c-0.5,1.4-1.6,2.2-3.4,2.2h-2c-3.3,0-5-1.6-5-4.9v-22.1h5v21.4
			c0,0.7,0.1,1.1,0.3,1.3c0.2,0.2,0.7,0.3,1.3,0.3h1.9c0.7,0,1.1-0.1,1.4-0.4c0.3-0.3,0.4-0.8,0.4-1.5V243.7z"/>
		<path class="st0" d="M279.4,243.7h1.9c3.4,0,5,1.6,5,4.9v22.1h-5v-21.4c0-0.7-0.1-1.1-0.3-1.3s-0.7-0.3-1.3-0.3h-1.9
			c-0.7,0-1.1,0.1-1.4,0.4c-0.3,0.3-0.4,0.8-0.4,1.5v21h-5v-27h5v2.2C276.4,244.5,277.5,243.7,279.4,243.7z"/>
		<path class="st0" d="M307.3,247.8h-3.7v17.1c0,0.7,0.1,1.1,0.3,1.3c0.2,0.2,0.6,0.3,1.3,0.3h2.1v4.3h-3.5c-3.5,0-5.2-1.6-5.2-4.9
			v-18.1H296v-4h2.5v-4.6h5v4.6h3.7V247.8z"/>
		<path class="st0" d="M322.3,243.7h5.4c3.5,0,5.2,1.6,5.2,4.9v10.1H322v6.4c0,0.6,0.1,1.1,0.3,1.3s0.7,0.3,1.3,0.3h2.5
			c0.7,0,1.1-0.1,1.3-0.3s0.3-0.7,0.3-1.3v-2.2h4.9v2.9c0,3.2-1.7,4.9-5.1,4.9h-5.3c-3.4,0-5.1-1.6-5.1-4.9v-17.2
			C317.1,245.4,318.8,243.7,322.3,243.7z M322,255.1h6v-5.9c0-0.6-0.1-1.1-0.3-1.3c-0.2-0.2-0.6-0.3-1.3-0.3h-2.7
			c-0.7,0-1.1,0.1-1.3,0.3c-0.2,0.2-0.3,0.6-0.3,1.3V255.1z"/>
		<path class="st0" d="M353.2,265.3v-4.5c0-0.7-0.1-1.1-0.3-1.3c-0.2-0.2-0.7-0.3-1.3-0.3h-2.8c-3.4,0-5.1-1.6-5.1-4.9v-5.7
			c0-3.3,1.7-4.9,5.1-4.9h4c3.5,0,5.2,1.6,5.2,4.9v2.6H353v-2.1c0-0.7-0.1-1.1-0.3-1.3c-0.2-0.2-0.7-0.3-1.3-0.3h-1.3
			c-0.7,0-1.1,0.1-1.3,0.3s-0.3,0.6-0.3,1.3v4.7c0,0.7,0.1,1.1,0.3,1.3s0.7,0.3,1.3,0.3h2.9c3.4,0,5.1,1.6,5.1,4.9v5.5
			c0,3.2-1.7,4.9-5.1,4.9h-4.1c-3.4,0-5.1-1.6-5.1-4.9v-2.7h4.9v2.1c0,0.7,0.1,1.1,0.3,1.3s0.7,0.3,1.3,0.3h1.3
			c0.7,0,1.1-0.1,1.3-0.3S353.2,266,353.2,265.3z"/>
		<path class="st0" d="M397.7,236.1v3.1l-9.3,31.6h-5.1l9-30.5h-10.1v-4.2H397.7z"/>
	</g>
	<g>
		<g>
			<rect x="334.3" class="st0" width="18.7" height="51.8"/>
			<rect x="176.5" y="47.3" class="st1" width="71.8" height="55"/>
			<rect x="368.1" y="47.3" class="st2" width="71.8" height="55"/>
			<rect x="248.4" y="55.5" class="st2" width="119.7" height="46.8"/>
		</g>
		<line class="st3" x1="188.9" y1="62.6" x2="188.9" y2="102.3"/>
		<line class="st3" x1="212.5" y1="62.6" x2="212.5" y2="102.3"/>
		<line class="st3" x1="236" y1="62.6" x2="236" y2="102.3"/>
		<line class="st4" x1="261.1" y1="62.6" x2="261.1" y2="95.2"/>
		<line class="st4" x1="284.7" y1="62.6" x2="284.7" y2="95.2"/>
		<line class="st4" x1="308.2" y1="62.6" x2="308.2" y2="95.2"/>
		<line class="st4" x1="331.8" y1="62.6" x2="331.8" y2="95.2"/>
		<line class="st4" x1="355.4" y1="62.6" x2="355.4" y2="95.2"/>
		<line class="st4" x1="380.4" y1="62.6" x2="380.4" y2="101.1"/>
		<line class="st4" x1="404" y1="62.6" x2="404" y2="101.1"/>
		<line class="st4" x1="427.6" y1="62.6" x2="427.6" y2="101.1"/>
	</g>
	<g>
		<path class="st0" d="M25.4,133.3h13v60.1c0,7.5-4.1,11.2-12.3,11.2H12.3c-8.2,0-12.3-3.7-12.3-11.2v-60.1h13v58.3
			c0,1.2,0.2,2,0.7,2.4c0.5,0.4,1.3,0.6,2.5,0.6h6c1.3,0,2.1-0.2,2.6-0.6c0.5-0.4,0.7-1.2,0.7-2.4V133.3z"/>
		<path class="st0" d="M76.4,176.8v27.8h-13v-71.3h26.2c8.2,0,12.3,3.7,12.3,11.2v21.1c0,6.2-2.8,9.8-8.2,10.8l11.9,28.1h-14
			l-10.8-27.8H76.4z M76.4,143.3v23.9h9.4c1.2,0,2-0.2,2.5-0.6c0.5-0.4,0.7-1.2,0.7-2.4v-17.8c0-1.2-0.2-2-0.7-2.4
			c-0.5-0.4-1.3-0.6-2.5-0.6H76.4z"/>
		<path class="st0" d="M126.2,133.3h27.1c8.2,0,12.3,3.7,12.3,11.2v15.4c0,4.7-1.6,7.6-4.7,8.7c3.2,1.1,4.7,3.8,4.7,8.1v16.7
			c0,7.5-4.1,11.2-12.3,11.2h-27.1V133.3z M152.7,160.8v-14.9c0-1.2-0.2-2-0.7-2.4c-0.5-0.4-1.3-0.6-2.6-0.6h-10.3v21h10.3
			c1.3,0,2.1-0.2,2.6-0.6C152.5,162.8,152.7,162,152.7,160.8z M152.7,192.1v-15.7c0-1.2-0.2-2-0.7-2.4c-0.5-0.4-1.3-0.6-2.6-0.6
			h-10.3v21.8h10.3c1.3,0,2.1-0.2,2.6-0.6C152.5,194.1,152.7,193.3,152.7,192.1z"/>
		<path class="st0" d="M219.3,204.6l-2.7-14.8H201l-2.5,14.8h-13l14.3-71.3h17.5l15,71.3H219.3z M202.7,180h12.1l-6.2-34.1
			L202.7,180z"/>
		<path class="st0" d="M280.6,133.3h11.9v71.3h-12.2L265,157.4v47.2h-12v-71.3h12.5l15,46.5V133.3z"/>
		<path class="st5" d="M351.5,191.6v-15.2c0-1.2-0.2-2-0.7-2.4c-0.5-0.4-1.3-0.6-2.5-0.6h-9.1c-7.8,0-11.6-3.8-11.6-11.3v-17.5
			c0-7.5,4.1-11.2,12.2-11.2h12.4c8.1,0,12.2,3.7,12.2,11.2v9.9h-13.1v-8.1c0-1.2-0.2-2-0.7-2.4c-0.5-0.4-1.3-0.6-2.5-0.6h-4.3
			c-1.3,0-2.1,0.2-2.6,0.6c-0.5,0.4-0.7,1.2-0.7,2.4v14.3c0,1.2,0.2,2,0.7,2.4c0.5,0.4,1.3,0.6,2.6,0.6h8.9
			c7.9,0,11.9,3.7,11.9,11.1v18.6c0,7.5-4.1,11.2-12.3,11.2h-12.2c-8.2,0-12.3-3.7-12.3-11.2v-9.8h13v8c0,1.2,0.2,2,0.7,2.4
			c0.5,0.4,1.3,0.6,2.6,0.6h4.3c1.2,0,2-0.2,2.5-0.6C351.3,193.6,351.5,192.8,351.5,191.6z"/>
		<path class="st5" d="M421.3,133.3v9.9h-12.5v61.3h-13v-61.3h-12.4v-9.9H421.3z"/>
		<path class="st5" d="M453.4,133.3h13.8c8.2,0,12.3,3.7,12.3,11.2v48.9c0,7.5-4.1,11.2-12.3,11.2h-13.8c-8.2,0-12.3-3.7-12.3-11.2
			v-48.9C441.1,137.1,445.2,133.3,453.4,133.3z M466.5,191.6v-45.3c0-1.2-0.2-2-0.7-2.4c-0.5-0.4-1.3-0.6-2.5-0.6h-6
			c-1.3,0-2.1,0.2-2.6,0.6c-0.5,0.4-0.7,1.2-0.7,2.4v45.3c0,1.2,0.2,2,0.7,2.4c0.5,0.4,1.3,0.6,2.6,0.6h6c1.2,0,2-0.2,2.5-0.6
			C466.2,193.6,466.5,192.8,466.5,191.6z"/>
		<path class="st5" d="M541.5,157h-13.1v-11.1c0-1.2-0.2-2-0.7-2.4c-0.5-0.4-1.3-0.6-2.5-0.6h-5.3c-1.2,0-2,0.2-2.5,0.6
			c-0.5,0.4-0.7,1.2-0.7,2.4v46.3c0,1.2,0.2,2,0.7,2.4c0.5,0.4,1.3,0.6,2.5,0.6h5.3c1.2,0,2-0.2,2.5-0.6c0.5-0.4,0.7-1.2,0.7-2.4
			v-10.8h13.1v12.2c0,7.5-4.1,11.2-12.3,11.2h-13.2c-8.2,0-12.3-3.7-12.3-11.2v-49c0-7.5,4.1-11.2,12.3-11.2h13.2
			c8.2,0,12.3,3.7,12.3,11.2V157z"/>
		<path class="st5" d="M564.8,204.6v-71.3h13v71.3H564.8z M606.6,133.3l-14.7,35.5l14.6,35.8h-14l-14.1-35.8l14.2-35.5H606.6z"/>
	</g>
</g>
<g>
</g>
<g>
</g>
<g>
</g>
<g>
</g>
<g>
</g>
<g>
</g>
<g>
</g>
<g>
</g>
<g>
</g>
<g>
</g>
<g>
</g>
<g>
</g>
<g>
</g>
<g>
</g>
<g>
</g>
</svg>
